<svg width="1750" height="400" viewBox="0 0 1750 400" fill="none" xmlns="http://www.w3.org/2000/svg">
<path d="M163.345 241.072C163.345 259.352 158.446 273.58 148.649 283.756C139.041 293.933 125.571 299.021 108.238 299.021C95.2385 299.021 85.1591 297.137 78 293.368V254.923C84.9707 259.257 92.2241 261.425 99.76 261.425C113.136 261.425 119.824 254.263 119.824 239.941V108.494H163.345V241.072Z" fill="#F2F2F2"/>
<path d="M376.876 202.909C376.876 232.12 368.398 255.771 351.442 273.863C334.675 291.766 312.255 300.717 284.184 300.717C255.924 300.717 233.41 291.766 216.643 273.863C199.875 255.959 191.492 232.308 191.492 202.909C191.492 173.699 199.875 150.142 216.643 132.239C233.599 114.147 256.112 105.102 284.184 105.102C312.444 105.102 334.957 114.053 351.725 131.956C368.492 149.86 376.876 173.511 376.876 202.909ZM250.555 160.507C242.265 170.872 238.12 185.006 238.12 202.909C238.12 220.813 242.265 235.041 250.555 245.594C258.844 255.959 270.054 261.142 284.184 261.142C298.314 261.142 309.523 255.959 317.813 245.594C326.103 235.041 330.247 220.813 330.247 202.909C330.247 185.006 326.103 170.872 317.813 160.507C309.523 149.954 298.314 144.677 284.184 144.677C270.054 144.677 258.844 149.954 250.555 160.507Z" fill="#F2F2F2"/>
<path d="M464.291 217.892L462.313 224.676H508.094L506.116 217.892C500.652 199.423 496.131 183.687 492.551 170.684C489.16 157.68 487.088 149.294 486.334 145.525L485.204 139.872C483.697 150.236 476.726 176.243 464.291 217.892ZM440.271 298.739H394.772L458.357 108.211H513.181L576.765 298.739H530.137L518.55 259.728H451.857L440.271 298.739ZM469.943 79.3777C465.233 79.3777 461.56 80.2257 458.922 81.9218C456.285 83.4294 452.893 86.6331 448.749 91.533L430.38 73.4413C433.394 67.0339 437.821 61.5687 443.662 57.0458C449.691 52.5229 456.19 50.2614 463.161 50.2614C469.943 50.2614 477.103 51.9575 484.639 55.3497C492.363 58.5534 498.015 60.1553 501.594 60.1553C510.826 60.1553 517.42 56.1035 521.376 48L542.288 65.2436C534.187 81.2622 521.376 89.2715 503.855 89.2715C497.638 89.2715 491.138 87.6696 484.356 84.4659C477.574 81.0737 472.769 79.3777 469.943 79.3777Z" fill="#F2F2F2"/>
<path d="M780.075 202.909C780.075 232.12 771.597 255.771 754.641 273.863C737.873 291.766 715.454 300.717 687.383 300.717C659.123 300.717 636.609 291.766 619.842 273.863C603.074 255.959 594.691 232.308 594.691 202.909C594.691 173.699 603.074 150.142 619.842 132.239C636.798 114.147 659.311 105.102 687.383 105.102C715.642 105.102 738.156 114.053 754.924 131.956C771.691 149.86 780.075 173.511 780.075 202.909ZM653.754 160.507C645.464 170.872 641.319 185.006 641.319 202.909C641.319 220.813 645.464 235.041 653.754 245.594C662.043 255.959 673.253 261.142 687.383 261.142C701.513 261.142 712.722 255.959 721.012 245.594C729.301 235.041 733.446 220.813 733.446 202.909C733.446 185.006 729.301 170.872 721.012 160.507C712.722 149.954 701.513 144.677 687.383 144.677C673.253 144.677 662.043 149.954 653.754 160.507Z" fill="#F2F2F2"/>
<path d="M938.14 217.892L936.162 224.676H981.942L979.964 217.892C974.501 199.423 969.979 183.687 966.399 170.684C963.008 157.68 960.936 149.294 960.182 145.525L959.052 139.872C957.545 150.236 950.574 176.243 938.14 217.892ZM914.119 298.739H868.621L932.205 108.211H987.029L1050.61 298.739H1003.99L992.398 259.728H925.705L914.119 298.739Z" fill="#F2F2F2"/>
<path d="M1189.49 298.739H1075.6V108.211H1119.12V260.577H1189.49V298.739Z" fill="#F2F2F2"/>
<path d="M1311.94 298.739H1263.89L1200.59 108.211H1247.5L1270.39 184.253C1274.54 197.821 1278.12 210.919 1281.13 223.545C1284.15 235.983 1286.12 245.029 1287.07 250.683L1288.48 259.446C1291.49 239.847 1297.62 214.782 1306.85 184.253L1329.74 108.211H1376.08L1311.94 298.739Z" fill="#F2F2F2"/>
<path d="M1518.28 298.739H1399.87V108.211H1517.15V142.981H1443.68V186.231H1509.24V220.718H1443.68V263.969H1518.28V298.739Z" fill="#F2F2F2"/>
<path d="M1672 243.333C1672 260.482 1665.69 274.428 1653.07 285.17C1640.44 295.723 1623.68 301 1602.76 301C1580.34 301 1562.07 297.042 1547.94 289.127V245.312C1565.08 257.75 1583.36 263.969 1602.76 263.969C1609.36 263.969 1614.82 262.273 1619.15 258.88C1623.49 255.3 1625.65 250.683 1625.65 245.029C1625.65 243.145 1625.37 241.354 1624.81 239.658C1624.24 237.962 1623.2 236.36 1621.7 234.853C1620.19 233.345 1618.68 232.12 1617.18 231.178C1615.86 230.047 1613.78 228.822 1610.96 227.503C1608.32 225.995 1606.06 224.77 1604.18 223.828C1602.29 222.886 1599.47 221.566 1595.7 219.87C1592.12 218.174 1589.2 216.855 1586.94 215.913C1574.69 210.259 1564.8 203.286 1557.27 194.994C1549.92 186.702 1546.24 175.678 1546.24 161.921C1546.24 145.525 1552.27 132.333 1564.33 122.345C1576.39 112.169 1593.06 107.08 1614.35 107.08C1633.38 107.08 1649.77 110.284 1663.52 116.692V157.398C1648.26 148.54 1632.44 144.112 1616.05 144.112C1608.7 144.112 1603.05 145.619 1599.09 148.635C1595.32 151.65 1593.44 155.513 1593.44 160.225C1593.44 164.936 1595.79 169.176 1600.5 172.945C1605.21 176.526 1612.28 180.389 1621.7 184.535C1627.54 187.174 1632.34 189.529 1636.11 191.602C1640.07 193.487 1644.49 196.219 1649.39 199.8C1654.48 203.192 1658.44 206.867 1661.26 210.825C1664.28 214.594 1666.82 219.305 1668.89 224.959C1670.96 230.612 1672 236.737 1672 243.333Z" fill="#F2F2F2"/>
<path d="M122.509 186.108H773.809V212.609H122.509V186.108Z" fill="#F2F2F2"/>
</svg>
